<svg xmlns="http://www.w3.org/2000/svg" width="18" height="22" viewBox="0 0 18 22"><g><path fillRule="evenodd" clipRule="evenodd" d="M3 4.75C2.30921 4.75 1.75 5.30921 1.75 6V19C1.75 19.6908 2.30921 20.25 3 20.25H15C15.6908 20.25 16.25 19.6908 16.25 19V6C16.25 5.30921 15.6908 4.75 15 4.75H11C10.5858 4.75 10.25 4.41421 10.25 4C10.25 3.58579 10.5858 3.25 11 3.25H15C16.5192 3.25 17.75 4.48079 17.75 6V19C17.75 20.5192 16.5192 21.75 15 21.75H3C1.48079 21.75 0.25 20.5192 0.25 19V6C0.25 4.48079 1.48079 3.25 3 3.25H7C7.41421 3.25 7.75 3.58579 7.75 4C7.75 4.41421 7.41421 4.75 7 4.75H3Z"></path><path fillRule="evenodd" clipRule="evenodd" d="M10.0607 10.1893C9.47488 9.60354 8.52514 9.60354 7.93935 10.1893C7.35356 10.7751 7.35356 11.7249 7.93935 12.3106C8.52514 12.8964 9.47488 12.8964 10.0607 12.3106C10.6465 11.7249 10.6465 10.7751 10.0607 10.1893ZM11.1213 9.12867C9.94976 7.9571 8.05026 7.9571 6.87869 9.12867C5.70712 10.3002 5.70712 12.1997 6.87869 13.3713C8.05026 14.5429 9.94976 14.5429 11.1213 13.3713C12.2929 12.1997 12.2929 10.3002 11.1213 9.12867Z"></path><path fillRule="evenodd" clipRule="evenodd" d="M5.68745 16.2957C6.41303 15.6234 7.36498 15.25 8.354 15.25H9.646C10.6349 15.25 11.5868 15.6233 12.3123 16.2954M5.68745 16.2957C5.25819 16.6928 4.92444 17.1801 4.70831 17.7223C4.55493 18.107 4.74251 18.5433 5.12728 18.6967C5.51205 18.8501 5.9483 18.6625 6.10169 18.2777C6.23552 17.942 6.44169 17.6413 6.7063 17.3966C7.1547 16.981 7.74313 16.75 8.354 16.75H9.646C10.2569 16.75 10.8448 16.9805 11.2932 17.3961C11.5578 17.6409 11.7645 17.942 11.8983 18.2777C12.0517 18.6625 12.488 18.8501 12.8727 18.6967C13.2575 18.5433 13.4451 18.107 13.2917 17.7223C13.0755 17.1801 12.7416 16.6926 12.3123 16.2954"></path><path fillRule="evenodd" clipRule="evenodd" d="M8 1.75C7.86221 1.75 7.75 1.86221 7.75 2V5C7.75 5.13779 7.86221 5.25 8 5.25H10C10.1378 5.25 10.25 5.13779 10.25 5V2C10.25 1.86221 10.1378 1.75 10 1.75H8ZM6.25 2C6.25 1.03379 7.03379 0.25 8 0.25H10C10.9662 0.25 11.75 1.03379 11.75 2V5C11.75 5.96621 10.9662 6.75 10 6.75H8C7.03379 6.75 6.25 5.96621 6.25 5V2Z"></path></g></svg>