<svg xmlns="http://www.w3.org/2000/svg" width="20" height="20" viewBox="0 0 20 20" fill="currentColor" class="jss103 icon"><g><path fill-rule="evenodd" clip-rule="evenodd" d="M10 20V20C4.47667 20 0 15.5233 0 10V10C0 4.47667 4.47667 0 10 0V0C15.5233 0 20 4.47667 20 10V10C20 15.5233 15.5233 20 10 20Z" fill="currentColor" fill-opacity="0.2"></path><path fill-rule="evenodd" clip-rule="evenodd" d="M10 5.25C10.4142 5.25 10.75 5.58579 10.75 6V14C10.75 14.4142 10.4142 14.75 10 14.75C9.58579 14.75 9.25 14.4142 9.25 14V6C9.25 5.58579 9.58579 5.25 10 5.25Z" fill="currentColor"></path><path fill-rule="evenodd" clip-rule="evenodd" d="M5.25 10C5.25 9.58579 5.58579 9.25 6 9.25H14C14.4142 9.25 14.75 9.58579 14.75 10C14.75 10.4142 14.4142 10.75 14 10.75H6C5.58579 10.75 5.25 10.4142 5.25 10Z" fill="currentColor"></path></g></svg>