<svg xmlns="http://www.w3.org/2000/svg" width="16" height="16" viewBox="0 0 16 16"><g><path d="M8,0 C12.418278,0 16,3.581722 16,8 C16,12.418278 12.418278,16 8,16 C3.581722,16 0,12.418278 0,8 C0,3.581722 3.581722,0 8,0 Z M1.5,8 C1.5,11.5898509 4.41014913,14.5 8,14.5 C9.52453897,14.5 10.9264914,13.9751448 12.0350218,13.09627 L2.90372996,3.96497816 C2.02485518,5.07350855 1.5,6.47546103 1.5,8 Z M8,1.5 C6.47546103,1.5 5.07350855,2.02485518 3.96497816,2.90372996 L13.09627,12.0350218 C13.9751448,10.9264914 14.5,9.52453897 14.5,8 C14.5,4.41014913 11.5898509,1.5 8,1.5 Z"></path></g></svg>