<svg xmlns="http://www.w3.org/2000/svg" width="20" height="20"><path fill="currentColor" d="M12.297 1.875c.76 0 1.492.277 2.06.774l.15.142 2.703 2.703c.537.537.858 1.25.908 2.003l.007.206v4.594c0 .76-.276 1.49-.774 2.059l-.14.15-2.704 2.705a3.128 3.128 0 01-2.003.907l-.207.007H7.702c-.76 0-1.49-.277-2.059-.774l-.15-.142-2.703-2.702a3.124 3.124 0 01-.908-2.003l-.007-.207V7.702c0-.76.277-1.491.774-2.058l.142-.15L5.493 2.79a3.121 3.121 0 012.003-.91l.206-.006h4.595zm0 1.25H7.702c-.442 0-.868.156-1.203.438l-.122.111-2.703 2.703a1.871 1.871 0 00-.542 1.16l-.007.165v4.595c0 .443.156.869.437 1.204l.112.122 2.702 2.703c.313.312.724.503 1.162.542l.164.007h4.595c.443 0 .869-.156 1.205-.437l.122-.112 2.702-2.703c.313-.313.503-.724.542-1.16l.007-.165V7.702c0-.442-.156-.868-.437-1.204l-.112-.121-2.703-2.704a1.871 1.871 0 00-1.16-.542l-.165-.007zm1.478 3.1a.625.625 0 01.073.797l-.073.087-6.666 6.666a.625.625 0 01-.957-.797l.073-.087 6.666-6.666a.625.625 0 01.884 0z"></path></svg>