<svg xmlns="http://www.w3.org/2000/svg" width="16" height="16" viewBox="0 0 16 16"><g><path d="M8.08454054 8.11827027C5.84627027 8.11827027 4.02551351 6.29816216 4.02551351 4.05924324 4.02551351 1.82097297 5.84646486.000216216216 8.08454054.000216216216 10.3226162.000216216216 12.1429189 1.82116757 12.1429189 4.05924324 12.1429189 6.29816216 10.3228108 8.11827027 8.08454054 8.11827027L8.08454054 8.11827027zM8.08454054 1.2972973C6.56172973 1.2972973 5.32281081 2.53632432 5.32281081 4.05902703 5.32281081 5.58268108 6.56183784 6.82075676 8.08454054 6.82075676 9.60724324 6.82075676 10.8456216 5.58257297 10.8456216 4.05902703 10.8456216 2.53621622 9.60743784 1.2972973 8.08454054 1.2972973L8.08454054 1.2972973zM8.08454054 9.23221622C1.08108108 9.23221622 1 13.7381622 1 13.7829189 1 14.9636541 1.9603027 15.9231135 3.13935135 15.9231135L13.0295135 15.9231135C14.2094054 15.9231135 15.1697081 14.9636541 15.1697081 13.7829189 15.1697081 13.7381557 15.088627 9.23221622 8.0843027 9.23221622M13.0293838 14.6257297L3.13922162 14.6257297C2.6747027 14.6257297 2.29716757 14.2481946 2.29716757 13.7895784 2.29970141 13.6569773 2.42976865 10.5294703 8.08441081 10.5294703 13.7397622 10.5294703 13.8699243 13.6570378 13.8725189 13.7828757 13.8725189 14.2482378 13.4941405 14.625773 13.0296216 14.625773"></path></g></svg>