<svg xmlns="http://www.w3.org/2000/svg"><path d="M15 1.875a3.125 3.125 0 013.12 2.948l.005.177v10a3.125 3.125 0 01-2.948 3.12l-.177.005H5a3.125 3.125 0 01-3.12-2.948L1.875 15V5a3.125 3.125 0 012.948-3.12L5 1.875h10zm0 1.25H6.125v13.75H15c.986 0 1.795-.761 1.87-1.728l.005-.147V5c0-.986-.761-1.795-1.728-1.87L15 3.126zm-10.125.004a1.875 1.875 0 00-1.744 1.716L3.125 5v10c0 .937.687 1.713 1.585 1.853l.165.017V3.13zm6.75 6.621a.625.625 0 01.092 1.243l-.092.007H9a.625.625 0 01-.092-1.243L9 9.75h2.625zm2.125-3.375a.625.625 0 01.092 1.243l-.092.007H9a.625.625 0 01-.092-1.243L9 6.375h4.75z"></path></svg>