<svg xmlns="http://www.w3.org/2000/svg" width="22" height="20" viewBox="0 0 22 20"><g><path fill-rule="evenodd" clip-rule="evenodd" d="M18.2503 15.0062C18.6645 15.0062 19.0003 15.342 19.0003 15.7562V18.7575C19.0003 19.1717 18.6645 19.5075 18.2503 19.5075C17.8361 19.5075 17.5003 19.1717 17.5003 18.7575V15.7562C17.5003 15.342 17.8361 15.0062 18.2503 15.0062Z"></path><path fill-rule="evenodd" clip-rule="evenodd" d="M15.0063 11.2533C15.0063 9.458 16.4628 8.00333 18.2573 8.00333C20.0518 8.00333 21.5083 9.458 21.5083 11.2533V13.2562C21.5083 15.0516 20.0518 16.5062 18.2573 16.5062C16.4628 16.5062 15.0063 15.0516 15.0063 13.2563V11.2533ZM18.2573 9.50333C17.2904 9.50333 16.5063 10.2872 16.5063 11.2533V13.2563C16.5063 14.2223 17.2904 15.0063 18.2573 15.0063C19.2242 15.0063 20.0083 14.2223 20.0083 13.2562V11.2533C20.0083 10.2872 19.2242 9.50333 18.2573 9.50333Z"></path><path fill-rule="evenodd" clip-rule="evenodd" d="M7.25271 16.0067C7.66692 16.0067 8.00271 16.3425 8.00271 16.7567V18.7575C8.00271 19.1717 7.66692 19.5075 7.25271 19.5075C6.83849 19.5075 6.50271 19.1717 6.50271 18.7575V16.7567C6.50271 16.3425 6.83849 16.0067 7.25271 16.0067Z"></path><path fill-rule="evenodd" clip-rule="evenodd" d="M3.50146 13.7554C3.50146 13.3412 3.83724 13.0054 4.25146 13.0054H10.254C10.6682 13.0054 11.004 13.3412 11.004 13.7554C11.004 14.1696 10.6682 14.5054 10.254 14.5054H4.25146C3.83724 14.5054 3.50146 14.1696 3.50146 13.7554Z"></path><path fill-rule="evenodd" clip-rule="evenodd" d="M3.50146 10.7542C3.50146 10.34 3.83724 10.0042 4.25146 10.0042H10.254C10.6682 10.0042 11.004 10.34 11.004 10.7542C11.004 11.1684 10.6682 11.5042 10.254 11.5042H4.25146C3.83724 11.5042 3.50146 11.1684 3.50146 10.7542Z"></path><path fill-rule="evenodd" clip-rule="evenodd" d="M3.50146 7.75292C3.50146 7.3387 3.83724 7.00292 4.25146 7.00292H10.254C10.6682 7.00292 11.004 7.3387 11.004 7.75292C11.004 8.16713 10.6682 8.50292 10.254 8.50292H4.25146C3.83724 8.50292 3.50146 8.16713 3.50146 7.75292Z"></path><path fill-rule="evenodd" clip-rule="evenodd" d="M6.0025 1.75042C6.0025 0.783688 6.78619 0 7.75292 0H17.2569C18.2236 0 19.0073 0.783689 19.0073 1.75042V8.75333C19.0073 9.16755 18.6715 9.50333 18.2573 9.50333C17.8431 9.50333 17.5073 9.16755 17.5073 8.75333V1.75042C17.5073 1.61211 17.3952 1.5 17.2569 1.5H7.75292C7.61462 1.5 7.5025 1.61212 7.5025 1.75042V4.75167C7.5025 5.16588 7.16671 5.50167 6.7525 5.50167C6.33829 5.50167 6.0025 5.16588 6.0025 4.75167V1.75042Z"></path><path fill-rule="evenodd" clip-rule="evenodd" d="M2.75083 5.50167C2.61253 5.50167 2.50042 5.61378 2.50042 5.75208V18.7575C2.50042 19.1717 2.16463 19.5075 1.75042 19.5075C1.3362 19.5075 1.00042 19.1717 1.00042 18.7575V5.75208C1.00042 4.78536 1.78411 4.00167 2.75083 4.00167H11.7546C12.7213 4.00167 13.505 4.78536 13.505 5.75208V18.7575C13.505 19.1717 13.1692 19.5075 12.755 19.5075C12.3408 19.5075 12.005 19.1717 12.005 18.7575V5.75208C12.005 5.61378 11.8929 5.50167 11.7546 5.50167H2.75083Z"></path><path fill-rule="evenodd" clip-rule="evenodd" d="M0 18.7575C0 18.3433 0.335786 18.0075 0.75 18.0075H20.7583C21.1725 18.0075 21.5083 18.3433 21.5083 18.7575C21.5083 19.1717 21.1725 19.5075 20.7583 19.5075H0.75C0.335786 19.5075 0 19.1717 0 18.7575Z"></path></g></svg>