<svg xmlns="http://www.w3.org/2000/svg" viewBox="0 0 367 57" width="195" height="30"><g fill="none" fillRule="evenodd"><path fillRule="nonzero" fill="#6333FF" d="M48.1159492.232410001C40.7048358.224077469 33.6095526 3.25893975 28.4630717 8.63854369 36.2107023 11.7997011 41.2819044 19.3871766 41.2819044 27.8179369 41.2819044 36.2486972 36.2107023 43.8361727 28.4630717 46.9973301 37.1068363 56.0118364 50.6908774 58.0093178 61.5258978 51.8590923 72.3609183 45.7088669 77.7192524 32.9592251 74.5677951 20.8271494 71.4163377 8.69507372 60.5484536.234757424 48.1159492.235194175L48.1159492.232410001zM28.4630717 8.63854369C19.8957192 5.13960259 10.0668687 7.8532683 4.45981505 15.2656477-1.14723858 22.6780271-1.14723858 32.9578467 4.45981505 40.3702261 10.0668687 47.7826055 19.8957192 50.4962712 28.4630717 46.9973301 18.2077842 36.3036739 18.2077842 19.3321999 28.4630717 8.63854369L28.4630717 8.63854369z"></path><path fillRule="nonzero" fill="#FFFFFF" d="M141.824116,18.2730994 L141.620784,23.195731 C143.035861,20.9116959 145.827548,18.2730994 150.138725,18.2730994 C156.128761,18.2730994 160.390479,22.434386 160.395974,30.7597076 C160.395974,41.1656725 154.051482,46.6462573 146.036375,46.6462573 C144.107473,46.6462573 142.483569,46.2916959 141.620784,45.5798246 L141.620784,45.5798246 L141.620784,57 L132.234563,57 L132.234563,18.2730994 L141.824116,18.2730994 Z M112.066277,10 C123.329193,10 129.214816,18.1714035 129.214816,27.6126316 C129.214816,39.2856725 121.65583,46.6462573 111.151286,46.6462573 C99.88837,46.6462573 94,38.4748538 94,29.0336257 C94,17.3605848 101.624931,10 112.066277,10 Z M175.805204,18.2730994 C183.163605,18.2730994 186.919742,22.9428655 186.919742,29.3881871 L186.919742,29.3881871 L186.919742,30.6690058 L170.732907,30.6690058 C170.628494,36.7075439 173.977968,40.4647953 178.59689,40.4647953 C181.844698,40.4647953 184.229722,39.2856725 186.155875,36.7487719 L186.155875,36.7487719 L187.117578,37.3589474 C185.749212,42.9412281 181.841951,46.6462573 175.448,46.6462573 C167.941221,46.6462573 162.25893,41.6136842 162.25893,33.0932164 C162.25893,24.0587719 168.499009,18.2730994 175.805204,18.2730994 Z M295.496009,18.2730994 C303.868321,18.2730994 309.652277,23.6025146 309.652277,31.9278363 C309.652277,40.4538012 303.766655,46.6462573 295.443803,46.6462573 C287.071491,46.6462573 281.287535,41.3168421 281.287535,32.9915205 C281.287535,24.4655556 287.173157,18.2730994 295.496009,18.2730994 Z M355.687625,18.2730994 C363.043279,18.2730994 366.799416,22.9428655 366.799416,29.3881871 L366.799416,29.3881871 L366.799416,30.6580117 L350.612581,30.6580117 C350.508168,36.6965497 353.86039,40.4538012 358.476564,40.4538012 C361.724372,40.4538012 364.114891,39.2856725 366.038297,36.7487719 L366.038297,36.7487719 L367,37.3589474 C365.628886,42.9412281 361.721624,46.6462573 355.327673,46.6462573 C347.820895,46.6462573 342.138604,41.6136842 342.138604,33.0932164 C342.138604,24.0587719 348.378683,18.2730994 355.687625,18.2730994 Z M199.671924,18.2730994 L199.468592,23.3496491 C201.394746,20.9116959 204.340305,18.2730994 208.90702,18.2730994 C213.828192,18.2730994 216.619878,21.0133918 216.625374,26.5956725 L216.625374,26.5956725 L216.625374,46.1377778 L207.236405,46.1377778 L207.236405,27.3597661 C207.236405,25.1252047 206.475286,23.8059064 203.837472,23.8059064 C202.315088,23.8262165 200.819404,24.2087277 199.474088,24.9218129 L199.474088,24.9218129 L199.474088,46.1377778 L190.13183,46.1377778 L190.13183,18.2730994 L199.671924,18.2730994 Z M234.625706,10.505731 C244.520256,10.505731 249.086971,15.1260234 249.086971,21.28 C249.086971,28.2722807 244.267465,32.3950877 234.219043,32.3950877 L234.219043,32.3950877 L230.718444,32.3950877 L230.718444,46.1377778 L220.774435,46.1377778 L220.774435,10.505731 Z M261.174204,10.505731 L261.174204,23.3496491 C263.103105,20.9116959 265.996457,18.2730994 270.612631,18.2730994 C275.489839,18.2730994 278.27603,21.065614 278.27603,26.5956725 L278.27603,26.5956725 L278.27603,46.1377778 L268.887062,46.1377778 L268.887062,27.3597661 C268.887062,25.1252047 268.125942,23.8059064 265.488128,23.8059064 C263.980625,23.8198689 262.499489,24.2030024 261.174204,24.9218129 L261.174204,24.9218129 L261.174204,46.1377778 L251.787982,46.1377778 L251.787982,10.505731 L261.174204,10.505731 Z M322.203875,18.2730994 L322.000544,23.3496491 C323.929445,20.9116959 326.872256,18.2730994 331.438971,18.2730994 C336.360143,18.2730994 339.151829,21.0133918 339.157325,26.5956725 L339.157325,26.5956725 L339.157325,46.1377778 L329.771104,46.1377778 L329.771104,27.3597661 C329.771104,25.1252047 329.009984,23.8059064 326.369423,23.8059064 C324.847039,23.8262165 323.351355,24.2087277 322.006039,24.9218129 L322.006039,24.9218129 L322.006039,46.1377778 L312.663781,46.1377778 L312.663781,18.2730994 L322.203875,18.2730994 Z M295.240471,20.4169591 C292.195994,20.4169591 291.234291,24.3226316 291.234291,30.7707018 C291.234291,39.0850292 292.451532,44.5133918 295.699341,44.5133918 C298.743818,44.5133918 299.708268,40.6049708 299.708268,34.1596491 C299.708268,25.8480702 298.537738,20.4169591 295.240471,20.4169591 Z M144.610306,23.8059064 C143.547835,23.7851228 142.503878,24.0859483 141.615289,24.6689474 L141.615289,24.6689474 L141.615289,38.9311111 C141.615289,42.2293567 142.53028,44.2605263 145.217553,44.2605263 C148.872025,44.2605263 150.850385,39.5907602 150.850385,33.6016959 C150.850385,26.9007602 148.457118,23.8059064 144.610306,23.8059064 Z M111.354617,12.4407018 C106.230114,12.4407018 104.504544,20.2575439 104.504544,27.7198246 C104.504544,36.7487719 106.535111,44.2110526 111.862946,44.2110526 C116.987449,44.2110526 118.713019,36.3942105 118.713019,28.9319298 C118.713019,19.9029825 116.682452,12.4407018 111.354617,12.4407018 Z M231.877983,12.891462 L230.710201,12.891462 L230.710201,29.7454971 L231.886226,29.7454971 C236.746948,29.7454971 239.33805,26.4994737 239.33805,21.2690058 C239.33805,16.038538 236.444698,12.891462 231.877983,12.891462 L231.877983,12.891462 Z M175.197957,20.4004678 C172.40627,20.4004678 171.035157,23.6025146 170.782366,28.3162573 L170.782366,28.3162573 L178.901887,28.3162573 C178.901887,23.3936257 177.94568,20.4004678 175.197957,20.4004678 Z M355.077631,20.4004678 C352.285944,20.4004678 350.917578,23.6025146 350.66204,28.3162573 L350.66204,28.3162573 L358.781561,28.3162573 C358.781561,23.3936257 357.825354,20.4004678 355.077631,20.4004678 Z"></path></g></svg>