<svg xmlns="http://www.w3.org/2000/svg" width="24" height="20"><path d="M19.218 4.25a2.532 2.532 0 012.527 2.366l.005.166-.005.142.005.076v10a2.75 2.75 0 01-2.582 2.745L19 19.75H5a2.75 2.75 0 01-2.745-2.582L2.25 17V7l.005-.091-.004-.157.007-.177a2.533 2.533 0 012.36-2.32l.164-.005h14.436zm-9.38 8.975l-5.014 5.013.048.006.128.006h14c.06 0 .119-.004.176-.012l-5.009-5.009a4.753 4.753 0 01-4.087.111l-.242-.115zM3.75 9.142V17c0 .06.004.119.012.176l4.785-4.785L3.75 9.142zm16.5.006l-4.792 3.249 4.78 4.779.006-.048.006-.128V9.148zM19.218 5.75H4.782c-.5 0-.921.357-1.012.81l-.015.106-.005.116c0 .3.13.582.352.776l.1.078 5.848 3.961c.06.03.119.067.171.114a3.244 3.244 0 003.425.094l.153-.096.046-.038a.745.745 0 01.104-.063l5.849-3.964c.247-.166.408-.432.444-.725l.008-.127-.006-.122a1.033 1.033 0 00-.905-.913l-.121-.007z"></path></svg>