<svg xmlns="http://www.w3.org/2000/svg" width="20" height="20" viewBox="0 0 20 20"><g><path fill-rule="evenodd" clip-rule="evenodd" d="M2.41769 4.50125C1.91052 4.50125 1.5 4.91177 1.5 5.41894V17.0898C1.5 17.597 1.91052 18.0075 2.41769 18.0075H14.0886C14.596 18.0075 15.0063 17.5967 15.0063 17.0908V5.41894C15.0063 4.91148 14.5954 4.50125 14.0896 4.50125H2.41769ZM0 5.41894C0 4.08335 1.0821 3.00125 2.41769 3.00125H14.0896C15.4244 3.00125 16.5063 4.08364 16.5063 5.41894V17.0908C16.5063 18.4257 15.4239 19.5075 14.0886 19.5075H2.41769C1.0821 19.5075 0 18.4254 0 17.0898V5.41894Z"></path><path fill-rule="evenodd" clip-rule="evenodd" d="M9.49153 8.44932C8.80644 7.76522 7.69786 7.76548 7.01499 8.44904C6.33062 9.13412 6.33079 10.2429 7.01445 10.9259C7.69917 11.6099 8.80817 11.6095 9.49153 10.9261C10.1753 10.2414 10.1748 9.13259 9.49153 8.44932ZM10.5503 7.38681C9.28047 6.11994 7.22312 6.1183 5.95379 7.38893C4.68534 8.65867 4.68317 10.7172 5.95433 11.9871C7.22442 13.2558 9.28274 13.2562 10.5522 11.9868C11.821 10.7167 11.8216 8.65811 10.5522 7.38866"></path><path fill-rule="evenodd" clip-rule="evenodd" d="M3.83622 14.7735C4.41369 14.2393 5.16932 13.9398 5.96017 13.9398H10.5461C11.3354 13.9398 12.0929 14.2374 12.6708 14.7742C13.0126 15.0911 13.2795 15.4802 13.4518 15.913C13.605 16.2978 13.4173 16.734 13.0324 16.8872C12.6476 17.0405 12.2114 16.8527 12.0582 16.4679C11.9684 16.2424 11.8293 16.0394 11.6509 15.8741C11.3505 15.5949 10.957 15.4398 10.5461 15.4398H5.96017C5.55065 15.4398 5.15793 15.5944 4.85507 15.8744C4.67685 16.0396 4.53776 16.2426 4.44804 16.4679C4.29481 16.8527 3.85863 17.0405 3.4738 16.8872C3.08897 16.734 2.90123 16.2978 3.05446 15.913C3.2268 15.4801 3.49435 15.0904 3.83622 14.7735Z"></path><path fill-rule="evenodd" clip-rule="evenodd" d="M5.41894 1.5C4.91177 1.5 4.50125 1.91052 4.50125 2.41769V3.75125C4.50125 4.16546 4.16546 4.50125 3.75125 4.50125C3.33704 4.50125 3.00125 4.16546 3.00125 3.75125V2.41769C3.00125 1.0821 4.08335 0 5.41894 0H17.0908C18.4257 0 19.5075 1.08239 19.5075 2.41769V14.0896C19.5075 15.4244 18.4251 16.5063 17.0898 16.5063H15.7563C15.342 16.5063 15.0063 16.1705 15.0063 15.7563C15.0063 15.342 15.342 15.0063 15.7563 15.0063H17.0898C17.5973 15.0063 18.0075 14.5954 18.0075 14.0896V2.41769C18.0075 1.91023 17.5967 1.5 17.0908 1.5H5.41894Z"></path></g></svg>