<svg xmlns="http://www.w3.org/2000/svg" width="20" height="20" viewBox="0 0 20 20"><g><path fillRule="evenodd" clip-rule="evenodd" d="M8 5.30565C8.38348 5.30565 8.69435 5.61652 8.69435 6V14C8.69435 14.3835 8.38348 14.6944 8 14.6944C7.61652 14.6944 7.30565 14.3835 7.30565 14V6C7.30565 5.61652 7.61652 5.30565 8 5.30565Z"></path><path fillRule="evenodd" clip-rule="evenodd" d="M12 5.30565C12.3835 5.30565 12.6943 5.61652 12.6943 6V14C12.6943 14.3835 12.3835 14.6944 12 14.6944C11.6165 14.6944 11.3056 14.3835 11.3056 14V6C11.3056 5.61652 11.6165 5.30565 12 5.30565Z"></path><path fillRule="evenodd" clip-rule="evenodd" d="M5.30565 12C5.30565 11.6165 5.61652 11.3056 6 11.3056H14C14.3835 11.3056 14.6944 11.6165 14.6944 12C14.6944 12.3835 14.3835 12.6943 14 12.6943H6C5.61652 12.6943 5.30565 12.3835 5.30565 12Z"></path><path fillRule="evenodd" clip-rule="evenodd" d="M5.30565 8C5.30565 7.61652 5.61652 7.30565 6 7.30565H14C14.3835 7.30565 14.6944 7.61652 14.6944 8C14.6944 8.38348 14.3835 8.69435 14 8.69435H6C5.61652 8.69435 5.30565 8.38348 5.30565 8Z"></path><path fillRule="evenodd" clip-rule="evenodd" d="M0.25 10C0.25 4.61522 4.61522 0.25 10 0.25C15.3848 0.25 19.75 4.61522 19.75 10C19.75 15.3848 15.3848 19.75 10 19.75C4.61522 19.75 0.25 15.3848 0.25 10ZM10 1.75C5.44365 1.75 1.75 5.44365 1.75 10C1.75 14.5563 5.44365 18.25 10 18.25C14.5563 18.25 18.25 14.5563 18.25 10C18.25 5.44365 14.5563 1.75 10 1.75Z"></path></g></svg>