<svg xmlns="http://www.w3.org/2000/svg" width="20px" height="20px"><path d="M10.667 1.875c.568 0 1.08.33 1.318.835l.054.13.423 1.178c.011.031.03.06.054.082l.039.03 1.256.724c.028.017.06.026.092.028l.049-.003 1.232-.222a1.458 1.458 0 011.447.586l.076.119.667 1.15c.283.487.257 1.09-.055 1.55l-.092.122-.81.957a.208.208 0 00-.043.086l-.006.048v1.45c0 .033.008.065.023.094l.027.04.81.958c.363.432.443 1.03.216 1.536l-.07.135-.666 1.15c-.284.491-.825.77-1.383.724l-.14-.019-1.232-.222a.208.208 0 00-.097.005l-.044.02-1.256.724a.215.215 0 00-.071.067l-.022.043-.423 1.18a1.458 1.458 0 01-1.233.958l-.14.007H9.333c-.568 0-1.08-.33-1.318-.835l-.054-.13-.423-1.178a.218.218 0 00-.053-.082l-.039-.03-1.257-.724a.208.208 0 00-.092-.028l-.049.003-1.232.222a1.458 1.458 0 01-1.447-.586l-.076-.119-.667-1.15a1.459 1.459 0 01.055-1.55l.092-.122.81-.957a.208.208 0 00.043-.086l.006-.048v-1.45a.206.206 0 00-.023-.094l-.03-.043-.799-.955a1.458 1.458 0 01-.215-1.536l.07-.135.665-1.15c.284-.491.825-.77 1.383-.724l.14.019 1.233.222a.208.208 0 00.096-.005l.045-.02 1.254-.723a.217.217 0 00.072-.068l.022-.043.423-1.18c.19-.53.668-.899 1.225-.957l.14-.008h1.334zm0 1.25H9.339a.208.208 0 00-.171.092l-.023.046-.424 1.181c-.1.277-.281.516-.52.688l-.123.08-1.256.725c-.256.148-.55.214-.842.191l-.146-.019L4.6 5.887a.208.208 0 00-.186.06l-.032.041-.666 1.15a.208.208 0 00-.012.185l.034.056.798.954c.191.225.309.503.338.795l.008.147v1.45c0 .296-.09.583-.256.825l-.09.117-.808.956a.208.208 0 00-.044.178l.023.06.668 1.152a.208.208 0 00.166.103l.052-.003 1.234-.222c.29-.053.589-.015.856.105l.131.067 1.259.726c.254.148.457.369.584.633l.057.136.423 1.18a.208.208 0 00.145.13l.051.007h1.334c.07 0 .135-.035.173-.092l.023-.046.424-1.18c.1-.278.283-.518.52-.69l.124-.08 1.256-.724c.256-.148.55-.214.841-.191l.146.019 1.234.222c.07.013.139-.01.186-.06l.032-.041.667-1.15a.209.209 0 00.013-.184l-.033-.054-.81-.957a1.458 1.458 0 01-.337-.795l-.008-.147v-1.45c0-.296.09-.583.256-.825l.09-.117.808-.956a.208.208 0 00.044-.178l-.023-.06-.668-1.152a.208.208 0 00-.166-.103l-.052.003-1.234.222c-.29.053-.589.015-.856-.105l-.131-.067-1.257-.725a1.463 1.463 0 01-.586-.634l-.057-.136-.423-1.18a.208.208 0 00-.145-.13l-.051-.007zM10 7.083a2.917 2.917 0 110 5.834 2.917 2.917 0 010-5.834zm0 1.25a1.667 1.667 0 100 3.334 1.667 1.667 0 000-3.334z"></path></svg>