<svg xmlns="http://www.w3.org/2000/svg" width="20" height="20">
  <path
    d="M14.333 1.875a3.125 3.125 0 013.12 2.948l.005.177v10a3.125 3.125 0 01-2.947 3.12l-.178.005h-8.5a3.125 3.125 0 01-3.12-2.948L2.708 15v-2a.625.625 0 011.244-.092l.006.092v2c0 .986.762 1.795 1.729 1.87l.146.005h8.5c.987 0 1.795-.761 1.87-1.728l.005-.147V5c0-.986-.761-1.795-1.728-1.87l-.147-.005h-8.5c-.986 0-1.794.761-1.869 1.728L3.958 5v2a.625.625 0 01-1.243.092L2.708 7V5a3.125 3.125 0 012.948-3.12l.177-.005h8.5zm-5.228 5.11l.087.073 2.54 2.543.06.088.022.042.032.08a.622.622 0 01.022.282l.007-.093c0 .046-.005.09-.014.134l-.027.088a.62.62 0 01-.07.133l-.04.053-2.532 2.534a.625.625 0 01-.956-.797l.072-.087 1.434-1.434L1 10.625a.625.625 0 01-.092-1.243L1 9.375l8.742-.001-1.434-1.432a.625.625 0 01-.072-.797l.072-.087a.625.625 0 01.797-.072z"
  ></path>
</svg>