<svg xmlns="http://www.w3.org/2000/svg" width="20" height="20"><path d="M8.333 1.875a.625.625 0 01.093 1.243l-.093.007H5c-.986 0-1.795.761-1.87 1.728L3.126 5v10c0 .986.761 1.795 1.728 1.87l.147.005h10c.986 0 1.795-.761 1.87-1.728l.005-.147v-3.333a.625.625 0 011.243-.093l.007.093V15a3.125 3.125 0 01-2.948 3.12l-.177.005H5a3.125 3.125 0 01-3.12-2.948L1.875 15V5a3.125 3.125 0 012.948-3.12L5 1.875h3.333zm6.042 0a3.75 3.75 0 110 7.5 3.75 3.75 0 010-7.5zm0 1.25a2.5 2.5 0 100 5 2.5 2.5 0 000-5z"></path></svg>